<?xml version="1.0" encoding="utf-8"?>
<!-- Svg Vector Icons : http://www.onlinewebfonts.com/icon -->
<!DOCTYPE svg PUBLIC "-//W3C//DTD SVG 1.1//EN" "http://www.w3.org/Graphics/SVG/1.1/DTD/svg11.dtd">
<svg version="1.1" xmlns="http://www.w3.org/2000/svg" xmlns:xlink="http://www.w3.org/1999/xlink" x="0px" y="0px" viewBox="0 0 256 256" enable-background="new 0 0 256 256" xml:space="preserve">
<metadata> Svg Vector Icons : http://www.onlinewebfonts.com/icon </metadata>
<g><g><path fill="#000000" d="M199.3,85.9c-15.8-17.5-37.3-28.6-60.6-31.1l-3-0.3V25.3h36.5c4.2,0,7.6-3.4,7.6-7.6s-3.4-7.6-7.6-7.6H83.9c-4.2,0-7.6,3.4-7.6,7.6s3.4,7.6,7.6,7.6h36.5v29.1l-3,0.3c-23.3,2.6-44.8,13.6-60.6,31.1c-15.9,17.6-24.7,40.4-24.7,64.2c0,25.6,10,49.7,28.1,67.8C78.3,236,102.4,246,128,246s49.7-10,67.8-28.1s28.1-42.2,28.1-67.8C223.9,126.3,215.2,103.5,199.3,85.9z M128.1,230.6c-44.5,0-80.6-36.2-80.6-80.6c0-44.5,36.2-80.6,80.6-80.6c44.5,0,80.6,36.2,80.6,80.6C208.7,194.5,172.5,230.6,128.1,230.6z"/><path fill="#000000" d="M128.1,168.7c-4.2,0-7.6-3.4-7.6-7.6v-44.1c0-4.2,3.4-7.6,7.6-7.6c4.2,0,7.6,3.4,7.6,7.6V161C135.7,165.3,132.3,168.7,128.1,168.7z"/></g></g>
</svg>