<?xml version="1.0" encoding="UTF-8"?>
<svg id="Layer_1" data-name="Layer 1" xmlns="http://www.w3.org/2000/svg" viewBox="0 0 283.46 283.46">
  <defs>
    <style>
      .cls-1 {
        fill: #ee3d96;
      }

      .cls-2 {
        fill: #ef5ba1;
      }
    </style>
  </defs>
  <g>
    <path class="cls-1" d="m46.64,141.46c4.96,2.52,3.4-5.12,3.4-5.12,0,0-3.3-10.57,5.34-13.51,8.13-2.76,12.96,5.67,14.44,8.72,1.48,3.05,6.55,18.64,10.19,23.87,5.12,7.36,15.14,12.21,23.79,9.33,0,0-11.2-5.07-18.18-13.02-7.16-8.14-11.57-20.86-15.65-25.1-4.2-4.36-8.68-8.02-15.39-5.06-6.71,2.96-8.79,7.84-9.79,10.68-1,2.84-1.23,7.63,1.86,9.2Z"/>
    <path class="cls-1" d="m109.68,101.08s-8.3,19.69-10.09,33.27c-1.79,13.58,1.23,25.21,1.23,25.21,0,0-6.13-14.2-4.7-26.18,1.43-11.98,13.56-32.3,13.56-32.3Z"/>
    <path class="cls-1" d="m116.02,93.63c-.55,1.08-5.11,5.15-5.11,5.15,0,0,.66-6.08,1.22-7.15.55-1.07,1.87-1.5,2.95-.95,1.08.55,1.5,1.87.95,2.95Z"/>
    <path class="cls-1" d="m103.43,154.49s-4.43-34.56,22.97-58.47c27.41-23.91,75.45-44.91,85.17-66.93,0,0-3.26,39.97-3.51,47.19-.24,6.66-.57,18.38-1.75,25.96-1.74,11.09-5.88,32.35-32.55,51.16,0,0,21.31,5.87,29.42,5.23,8.11-.64,19.61-2.06,25.75-6.45,0,0-13.12,53.56-54.45,53.5-44.44-.07-58.8-28.71-47.99-44.98,0,0-1.66,12.12,5.75,22.95,7.4,10.83,16.53,19.79,42.07,20.88s41.28-21.81,46.65-45.3c0,0-8.04,1.97-17.93,1.92-9.89-.05-26.1-6.08-30.1-6.91,0,0-29.81,18.75-32.36,6.69-2.91-13.78,32.02-8.25,32.02-8.25,0,0,29.44-20.74,30.06-49.25.63-28.88-.93-35.58,1.52-53.71,0,0-10.63,11.17-19.37,16.9-8.75,5.73-40.95,18.78-54.34,32.95-13.39,14.17-22.87,30.52-27.03,54.93Z"/>
    <path class="cls-1" d="m113.77,153.27s1.32,6.63-7.19,18.43c-8.51,11.8-25.92,21.01-31.03,43.41-5.11,22.4,7.87,29.76,16.13,27.68,11.22-2.82,22.08-13.37,20.93-31.38-1.22-19.27-8.62-26.56-5.28-32.48,0,0-7.97,7.3-2.13,30.45,4.31,17.08-1.82,28.83-11.6,30.78-8.93,1.78-19.38-6.53-16.83-25.14,2.55-18.61,25.36-29.35,33.79-44.32,6.64-11.81,3.2-17.43,3.2-17.43Z"/>
  </g>
  <g>
    <path class="cls-2" d="m121.65,217.71h1.91l1.74,3.36,1.73-3.36h1.88l-2.73,5.29v4.04h-1.79v-4.04l-2.75-5.29Z"/>
    <path class="cls-2" d="m130.69,220.14h1.75v3.33c0,.65.04,1.1.13,1.35.09.25.23.45.43.59.2.14.44.21.73.21s.53-.07.74-.21c.2-.14.35-.34.45-.61.07-.2.11-.62.11-1.28v-3.38h1.73v2.93c0,1.2-.1,2.03-.29,2.47-.23.54-.58.96-1.03,1.25-.45.29-1.03.43-1.73.43-.76,0-1.37-.17-1.84-.51-.47-.34-.8-.81-.99-1.42-.14-.42-.2-1.18-.2-2.29v-2.88Z"/>
    <path class="cls-2" d="m139.01,220.14h1.73v.79c.3-.33.63-.57.99-.73.36-.16.76-.24,1.18-.24s.82.11,1.17.32c.35.21.63.52.84.93.28-.41.61-.72,1.01-.93.4-.21.84-.32,1.31-.32s.92.11,1.29.34c.37.23.64.53.8.89.16.37.24.97.24,1.8v4.05h-1.75v-3.5c0-.78-.1-1.31-.29-1.59-.2-.28-.49-.42-.88-.42-.3,0-.56.08-.8.25-.23.17-.41.4-.52.7-.11.3-.17.78-.17,1.44v3.12h-1.75v-3.34c0-.62-.05-1.07-.14-1.34-.09-.28-.23-.48-.41-.62-.18-.14-.4-.2-.66-.2-.29,0-.55.09-.79.26-.24.17-.41.41-.53.72-.12.31-.17.79-.17,1.46v3.07h-1.73v-6.91Z"/>
    <path class="cls-2" d="m152.44,217.29c.3,0,.56.11.78.33.22.22.33.49.33.8s-.11.57-.32.79c-.21.22-.47.33-.77.33s-.57-.11-.79-.33c-.22-.22-.33-.49-.33-.81s.11-.56.32-.78c.21-.21.47-.32.78-.32Zm-.87,2.84h1.73v6.91h-1.73v-6.91Z"/>
    <path class="cls-2" d="m168.33,219.35l-1.24,1.19c-.85-.89-1.8-1.34-2.85-1.34-.89,0-1.64.31-2.25.92-.61.61-.92,1.36-.92,2.25,0,.62.13,1.18.41,1.66.27.48.65.86,1.15,1.14s1.04.41,1.65.41c.52,0,.99-.1,1.41-.29.43-.19.9-.54,1.41-1.05l1.21,1.26c-.69.67-1.34,1.14-1.96,1.4-.61.26-1.31.39-2.1.39-1.45,0-2.64-.46-3.56-1.38-.92-.92-1.39-2.1-1.39-3.54,0-.93.21-1.76.63-2.48.42-.72,1.03-1.3,1.81-1.75.78-.44,1.63-.66,2.54-.66.77,0,1.51.16,2.22.49.71.33,1.33.79,1.84,1.39Z"/>
    <path class="cls-2" d="m170.22,217.47h1.72v3.36c.34-.29.68-.51,1.02-.66.34-.15.69-.22,1.04-.22.69,0,1.26.24,1.73.71.4.41.6,1.01.6,1.81v4.56h-1.71v-3.03c0-.8-.04-1.34-.11-1.62-.08-.28-.21-.49-.39-.63-.18-.14-.41-.21-.68-.21-.35,0-.65.12-.91.35-.25.23-.43.55-.52.95-.05.21-.08.68-.08,1.42v2.77h-1.72v-9.57Z"/>
    <path class="cls-2" d="m178.53,220.14h1.75v3.33c0,.65.04,1.1.13,1.35.09.25.23.45.43.59.2.14.44.21.73.21s.53-.07.73-.21.35-.34.45-.61c.07-.2.11-.62.11-1.28v-3.38h1.73v2.93c0,1.2-.09,2.03-.29,2.47-.23.54-.58.96-1.03,1.25-.45.29-1.03.43-1.73.43-.76,0-1.37-.17-1.84-.51-.47-.34-.8-.81-.99-1.42-.14-.42-.2-1.18-.2-2.29v-2.88Z"/>
    <path class="cls-2" d="m186.85,220.14h1.73v.71c.39-.33.75-.56,1.07-.69.32-.13.65-.19.98-.19.68,0,1.27.24,1.74.72.4.41.6,1.01.6,1.8v4.56h-1.71v-3.02c0-.82-.04-1.37-.11-1.64-.07-.27-.2-.48-.39-.62-.18-.14-.41-.21-.68-.21-.35,0-.65.12-.9.35-.25.23-.43.56-.52.97-.05.22-.08.68-.08,1.4v2.77h-1.73v-6.91Z"/>
    <path class="cls-2" d="m200.28,220.14h1.73v5.92c0,1.17-.24,2.03-.71,2.58-.63.74-1.58,1.12-2.85,1.12-.68,0-1.25-.08-1.71-.25-.46-.17-.85-.42-1.17-.75-.32-.33-.55-.73-.7-1.2h1.91c.17.19.39.34.65.44.27.1.58.15.95.15.46,0,.84-.07,1.12-.22.28-.14.48-.33.6-.56.12-.23.18-.62.18-1.18-.3.3-.62.52-.96.66-.33.13-.71.2-1.14.2-.93,0-1.71-.33-2.35-1-.64-.67-.96-1.52-.96-2.54,0-1.1.34-1.98,1.02-2.64.61-.6,1.35-.9,2.2-.9.4,0,.77.07,1.13.22.35.15.71.39,1.06.72v-.76Zm-1.8,1.44c-.55,0-1,.18-1.35.55-.36.37-.53.83-.53,1.38s.18,1.05.54,1.42c.36.37.82.55,1.37.55s.98-.18,1.33-.54c.35-.36.52-.83.52-1.41s-.18-1.04-.53-1.4c-.35-.36-.8-.54-1.36-.54Z"/>
    <path class="cls-2" d="m126.83,233.07c1.41,0,2.6.47,3.55,1.42s1.43,2.11,1.43,3.49-.48,2.53-1.43,3.48c-.95.95-2.11,1.43-3.48,1.43s-2.55-.47-3.51-1.42c-.95-.95-1.43-2.09-1.43-3.44,0-.9.22-1.73.65-2.5.43-.77,1.03-1.37,1.78-1.8s1.56-.65,2.43-.65Zm.04.91c-.69,0-1.35.18-1.96.54-.62.36-1.1.84-1.45,1.46-.35.61-.52,1.29-.52,2.04,0,1.11.38,2.05,1.15,2.81.77.76,1.7,1.15,2.78,1.15.72,0,1.4-.18,2.01-.53.62-.35,1.1-.83,1.44-1.44.35-.61.52-1.29.52-2.03s-.17-1.41-.52-2.01c-.35-.6-.83-1.08-1.46-1.44-.63-.36-1.29-.54-2-.54Z"/>
    <path class="cls-2" d="m136.9,233.07v.87c-.33-.14-.61-.21-.84-.21-.17,0-.32.04-.43.1-.11.07-.19.15-.22.24-.03.09-.04.33-.04.73v.93s1.44,0,1.44,0v.77h-1.44v6.14h-.89v-6.14h-.91v-.77h.91v-1.08c0-.49.05-.85.14-1.06.09-.21.25-.38.46-.51.22-.13.48-.19.79-.19.29,0,.63.06,1.03.18Z"/>
    <path class="cls-2" d="m141.53,233.07v.87c-.33-.14-.6-.21-.84-.21-.17,0-.32.04-.43.1-.11.07-.19.15-.22.24-.03.09-.04.33-.04.73v.93s1.44,0,1.44,0v.77h-1.44v6.14h-.89v-6.14h-.91v-.77h.91v-1.08c0-.49.05-.85.14-1.06.09-.21.25-.38.46-.51.22-.13.48-.19.79-.19.29,0,.63.06,1.03.18Z"/>
    <path class="cls-2" d="m143.6,232.89c.2,0,.38.07.52.21.14.14.21.32.21.52s-.07.37-.21.51c-.14.14-.32.22-.52.22s-.37-.07-.51-.22c-.14-.14-.21-.32-.21-.51s.07-.38.21-.52c.14-.14.31-.21.51-.21Zm-.44,2.84h.89v6.91h-.89v-6.91Z"/>
    <path class="cls-2" d="m153.12,237.17l-.7.44c-.61-.81-1.44-1.21-2.49-1.21-.84,0-1.54.27-2.1.81-.56.54-.83,1.2-.83,1.97,0,.5.13.98.38,1.42.26.44.61.79,1.05,1.03.45.25.95.37,1.5.37,1.01,0,1.84-.4,2.49-1.21l.7.46c-.33.5-.77.88-1.33,1.16-.56.27-1.19.41-1.9.41-1.09,0-2-.35-2.72-1.04-.72-.69-1.08-1.54-1.08-2.53,0-.67.17-1.29.5-1.86.34-.57.8-1.02,1.39-1.34.59-.32,1.25-.48,1.97-.48.46,0,.9.07,1.32.21.43.14.79.32,1.08.55.3.22.55.51.75.86Z"/>
    <path class="cls-2" d="m155.65,232.89c.2,0,.38.07.52.21.14.14.21.32.21.52s-.07.37-.21.51c-.14.14-.32.22-.52.22s-.37-.07-.51-.22c-.14-.14-.21-.32-.21-.51s.07-.38.21-.52c.14-.14.31-.21.51-.21Zm-.44,2.84h.89v6.91h-.89v-6.91Z"/>
    <path class="cls-2" d="m165.35,235.74v6.91h-.88v-1.19c-.37.45-.79.79-1.25,1.02-.46.23-.97.34-1.52.34-.98,0-1.81-.36-2.5-1.06-.69-.71-1.04-1.57-1.04-2.59s.35-1.85,1.05-2.55c.7-.71,1.54-1.06,2.52-1.06.57,0,1.08.12,1.54.36s.86.6,1.21,1.09v-1.27h.88Zm-3.55.68c-.49,0-.95.12-1.37.36-.42.24-.75.58-1,1.02-.25.44-.37.9-.37,1.4s.12.95.37,1.39c.25.44.58.79,1,1.04.42.25.87.37,1.35.37s.95-.12,1.38-.37c.44-.24.77-.58,1-1,.24-.42.35-.89.35-1.41,0-.8-.26-1.47-.79-2-.53-.54-1.17-.81-1.94-.81Z"/>
    <path class="cls-2" d="m167.74,233.07h.89v9.57h-.89v-9.57Z"/>
    <path class="cls-2" d="m175.26,233.31h4.68v.91h-3.75v2.93h3.75v.91h-3.75v4.58h-.93v-9.34Z"/>
    <path class="cls-2" d="m188.81,235.74v6.91h-.88v-1.19c-.37.45-.79.79-1.25,1.02-.46.23-.97.34-1.52.34-.98,0-1.81-.36-2.5-1.06-.69-.71-1.04-1.57-1.04-2.59s.35-1.85,1.05-2.55c.7-.71,1.54-1.06,2.52-1.06.57,0,1.08.12,1.54.36.46.24.86.6,1.21,1.09v-1.27h.88Zm-3.55.68c-.49,0-.95.12-1.37.36-.42.24-.75.58-1,1.02-.25.44-.37.9-.37,1.4s.12.95.37,1.39c.25.44.58.79,1,1.04.42.25.87.37,1.35.37s.95-.12,1.38-.37c.44-.24.77-.58,1-1,.24-.42.35-.89.35-1.41,0-.8-.26-1.47-.79-2-.53-.54-1.17-.81-1.94-.81Z"/>
    <path class="cls-2" d="m191.33,235.74h.89v1.24c.36-.47.75-.83,1.18-1.06.43-.23.9-.35,1.41-.35s.97.13,1.37.39c.4.26.7.62.89,1.06.19.44.29,1.14.29,2.08v3.55h-.89v-3.29c0-.79-.03-1.33-.1-1.59-.1-.46-.3-.8-.59-1.03-.29-.23-.67-.35-1.14-.35-.54,0-1.02.18-1.44.53-.43.36-.71.79-.84,1.32-.08.34-.13.97-.13,1.88v2.53h-.89v-6.91Z"/>
    <path class="cls-2" d="m203.25,236.49l-.57.59c-.48-.46-.94-.69-1.39-.69-.29,0-.54.09-.74.29-.21.19-.31.41-.31.67,0,.22.08.44.25.64.17.21.53.45,1.07.73.66.34,1.11.67,1.35.99.23.32.35.68.35,1.09,0,.57-.2,1.05-.6,1.44-.4.39-.9.59-1.49.59-.4,0-.78-.09-1.14-.26-.36-.17-.66-.41-.9-.72l.56-.63c.45.51.93.77,1.44.77.36,0,.66-.11.91-.34s.38-.5.38-.81c0-.25-.08-.48-.25-.68-.17-.19-.54-.44-1.12-.74-.62-.32-1.05-.64-1.27-.95-.22-.31-.34-.67-.34-1.07,0-.53.18-.96.54-1.31.36-.35.81-.52,1.36-.52.64,0,1.28.31,1.92.93Z"/>
    <path class="cls-2" d="m218.31,235.04l-.74.57c-.41-.53-.89-.93-1.46-1.2-.57-.27-1.19-.41-1.87-.41-.74,0-1.43.18-2.07.54-.63.36-1.13.84-1.48,1.44-.35.6-.52,1.28-.52,2.04,0,1.14.39,2.09,1.17,2.85.78.76,1.77,1.14,2.96,1.14,1.31,0,2.4-.51,3.28-1.54l.74.56c-.47.59-1.05,1.05-1.74,1.37-.7.32-1.47.49-2.33.49-1.63,0-2.92-.54-3.87-1.63-.79-.92-1.19-2.03-1.19-3.33,0-1.37.48-2.52,1.44-3.45.96-.93,2.16-1.4,3.6-1.4.87,0,1.66.17,2.36.52.7.34,1.28.83,1.73,1.45Z"/>
    <path class="cls-2" d="m220.42,233.07h.89v9.57h-.89v-9.57Z"/>
    <path class="cls-2" d="m223.56,235.74h.89v3.22c0,.79.04,1.33.13,1.62.13.42.37.76.73,1,.36.25.79.37,1.28.37s.92-.12,1.26-.36c.34-.24.58-.55.71-.94.09-.27.13-.83.13-1.69v-3.22h.91v3.39c0,.95-.11,1.67-.33,2.15-.22.48-.56.86-1,1.13-.45.27-1.01.41-1.68.41s-1.23-.14-1.68-.41c-.45-.27-.79-.65-1.01-1.14-.22-.49-.33-1.22-.33-2.2v-3.33Z"/>
    <path class="cls-2" d="m232.16,242.64v-9.57h.89v3.85c.37-.46.79-.8,1.25-1.02.46-.23.97-.34,1.52-.34.98,0,1.81.35,2.5,1.06.69.71,1.04,1.57,1.04,2.58s-.35,1.85-1.05,2.56c-.7.71-1.54,1.06-2.52,1.06-.56,0-1.07-.12-1.53-.36-.46-.24-.86-.6-1.21-1.08v1.27h-.89Zm3.55-.68c.49,0,.95-.12,1.37-.37.42-.24.75-.58,1-1.03.25-.44.37-.91.37-1.4s-.12-.96-.37-1.4c-.25-.44-.58-.79-1-1.04-.42-.25-.87-.37-1.35-.37s-.95.12-1.38.37c-.44.25-.77.58-1.01,1-.23.42-.35.89-.35,1.41,0,.8.26,1.47.79,2.01.53.54,1.17.81,1.94.81Z"/>
  </g>
</svg>