<svg width="157" height="155" viewBox="0 0 157 155" fill="none" xmlns="http://www.w3.org/2000/svg">
<path d="M25.8324 77.3524C28.5796 78.7303 27.7156 74.5527 27.7156 74.5527C27.7156 74.5527 25.8878 68.7728 30.6733 67.1652C35.1762 65.656 37.8514 70.2656 38.6712 71.9334C39.4909 73.6012 42.299 82.126 44.3151 84.9859C47.1509 89.0104 52.7007 91.6625 57.4917 90.0877C57.4917 90.0877 51.2883 87.3153 47.4223 82.9681C43.4566 78.5171 41.014 71.5616 38.7542 69.2431C36.428 66.859 33.9466 64.8576 30.2302 66.4762C26.5137 68.0948 25.3617 70.7632 24.8078 72.3162C24.2539 73.8691 24.1265 76.4884 25.838 77.3469L25.8324 77.3524Z" fill="#D9D9D9"/>
<path d="M60.7484 55.272C60.7484 55.272 56.1513 66.0388 55.1599 73.4645C54.1684 80.8903 55.8411 87.2497 55.8411 87.2497C55.8411 87.2497 52.4459 79.4849 53.2379 72.9341C54.03 66.3833 60.7484 55.272 60.7484 55.272Z" fill="#D9D9D9"/>
<path d="M64.26 51.1982C63.9553 51.7888 61.4297 54.0143 61.4297 54.0143C61.4297 54.0143 61.7952 50.6897 62.1054 50.1046C62.41 49.5195 63.1411 49.2844 63.7393 49.5851C64.3375 49.8859 64.5701 50.6077 64.2655 51.1982H64.26Z" fill="#D9D9D9"/>
<path d="M57.2868 84.4774C57.2868 84.4774 54.8331 65.5794 70.0091 52.5051C85.1907 39.4308 111.799 27.9477 117.182 15.9068C117.182 15.9068 115.377 37.763 115.238 41.711C115.105 45.3528 114.922 51.7614 114.269 55.9063C113.305 61.9705 111.012 73.5958 96.2404 83.8813C96.2404 83.8813 108.043 87.0911 112.535 86.7412C117.027 86.3912 123.397 85.6147 126.797 83.2142C126.797 83.2142 119.531 112.502 96.6392 112.469C72.0252 112.431 64.0717 96.7698 70.059 87.8731C70.059 87.8731 69.1396 94.5005 73.2438 100.422C77.3424 106.344 82.3992 111.244 96.5451 111.84C110.691 112.436 119.409 99.9139 122.383 87.0693C122.383 87.0693 117.93 88.1465 112.452 88.1191C106.974 88.0918 97.9962 84.7945 95.7807 84.3407C95.7807 84.3407 79.2699 94.5934 77.8575 87.9988C76.2457 80.4637 95.5924 83.4876 95.5924 83.4876C95.5924 83.4876 111.898 72.1467 112.242 56.557C112.591 40.765 111.727 37.1014 113.084 27.1876C113.084 27.1876 107.196 33.2955 102.355 36.4288C97.5088 39.562 79.6742 46.6979 72.2579 54.4463C64.8415 62.1947 59.5909 71.1351 57.2868 84.4828V84.4774Z" fill="#D9D9D9"/>
<path d="M63.0137 83.8102C63.0137 83.8102 63.7448 87.4356 59.0314 93.888C54.3179 100.34 44.6751 105.377 41.8448 117.625C39.0145 129.874 46.2037 133.898 50.7787 132.761C56.9931 131.219 63.0081 125.45 62.3712 115.602C61.6955 105.065 57.5968 101.079 59.4468 97.8415C59.4468 97.8415 55.0324 101.833 58.267 114.492C60.6542 123.832 57.259 130.257 51.8421 131.323C46.8961 132.296 41.1081 127.752 42.5205 117.576C43.9329 107.4 56.5666 101.527 61.2358 93.3412C64.9135 86.8833 63.0082 83.8102 63.0082 83.8102H63.0137Z" fill="#D9D9D9"/>
<path d="M67.3783 119.047H68.4362L69.4 120.884L70.3582 119.047H71.3994L69.8874 121.94V124.149H68.8959V121.94L67.3728 119.047H67.3783Z" fill="#D9D9D9"/>
<path d="M72.3853 120.376H73.3546V122.197C73.3546 122.552 73.3767 122.798 73.4266 122.935C73.4764 123.072 73.554 123.181 73.6647 123.257C73.7755 123.334 73.9084 123.372 74.0691 123.372C74.2297 123.372 74.3626 123.334 74.4789 123.257C74.5897 123.181 74.6728 123.072 74.7282 122.924C74.7669 122.815 74.7891 122.585 74.7891 122.224V120.376H75.7473V121.978C75.7473 122.634 75.6919 123.088 75.5867 123.329C75.4593 123.624 75.2654 123.853 75.0162 124.012C74.7669 124.171 74.4457 124.247 74.058 124.247C73.6371 124.247 73.2992 124.154 73.0389 123.968C72.7785 123.782 72.5958 123.525 72.4905 123.192C72.413 122.962 72.3798 122.547 72.3798 121.94V120.365L72.3853 120.376Z" fill="#D9D9D9"/>
<path d="M76.9935 120.376H77.9517V120.808C78.1179 120.627 78.3007 120.496 78.5001 120.409C78.6995 120.321 78.921 120.277 79.1536 120.277C79.3863 120.277 79.6078 120.337 79.8017 120.452C79.9955 120.567 80.1506 120.737 80.2669 120.961C80.422 120.737 80.6048 120.567 80.8263 120.452C81.0479 120.337 81.2916 120.277 81.5519 120.277C81.8122 120.277 82.0615 120.337 82.2664 120.463C82.4713 120.589 82.6209 120.753 82.7095 120.95C82.7981 121.152 82.8424 121.48 82.8424 121.934V124.149H81.8731V122.235C81.8731 121.808 81.8178 121.519 81.7125 121.365C81.6017 121.212 81.4411 121.136 81.2251 121.136C81.0589 121.136 80.915 121.18 80.782 121.272C80.6546 121.365 80.5549 121.491 80.494 121.655C80.4331 121.819 80.3998 122.082 80.3998 122.443V124.149H79.4306V122.322C79.4306 121.983 79.4029 121.737 79.353 121.59C79.3032 121.437 79.2256 121.327 79.1259 121.251C79.0263 121.174 78.9044 121.141 78.7604 121.141C78.5998 121.141 78.4558 121.19 78.3228 121.283C78.1899 121.376 78.0958 121.508 78.0293 121.677C77.9628 121.847 77.9351 122.109 77.9351 122.475V124.154H76.9769V120.376H76.9935Z" fill="#D9D9D9"/>
<path d="M84.432 118.817C84.5982 118.817 84.7422 118.877 84.864 118.998C84.9859 119.118 85.0468 119.266 85.0468 119.435C85.0468 119.605 84.9859 119.747 84.8696 119.867C84.7533 119.987 84.6093 120.048 84.4431 120.048C84.2769 120.048 84.1274 119.987 84.0055 119.867C83.8837 119.747 83.8228 119.599 83.8228 119.424C83.8228 119.249 83.8837 119.118 84 118.998C84.1163 118.883 84.2603 118.823 84.432 118.823V118.817ZM83.9502 120.37H84.9083V124.149H83.9502V120.37Z" fill="#D9D9D9"/>
<path d="M93.233 119.944L92.5462 120.594C92.0754 120.108 91.5493 119.862 90.9677 119.862C90.4747 119.862 90.0593 120.031 89.7215 120.365C89.3836 120.698 89.2119 121.108 89.2119 121.595C89.2119 121.934 89.2839 122.24 89.439 122.503C89.5885 122.765 89.799 122.973 90.076 123.126C90.3529 123.279 90.652 123.35 90.9898 123.35C91.2779 123.35 91.5382 123.296 91.7708 123.192C92.009 123.088 92.2693 122.897 92.5518 122.618L93.2219 123.307C92.8398 123.673 92.4798 123.93 92.1364 124.072C91.7985 124.214 91.4108 124.285 90.9732 124.285C90.1701 124.285 89.511 124.034 89.0014 123.531C88.4919 123.028 88.2316 122.383 88.2316 121.595C88.2316 121.087 88.3479 120.633 88.5805 120.239C88.8131 119.845 89.151 119.528 89.583 119.282C90.015 119.042 90.4858 118.921 90.9898 118.921C91.4163 118.921 91.8262 119.009 92.2194 119.189C92.6127 119.37 92.9561 119.621 93.2385 119.949L93.233 119.944Z" fill="#D9D9D9"/>
<path d="M94.2798 118.916H95.2325V120.753C95.4208 120.594 95.6091 120.474 95.7974 120.392C95.9858 120.31 96.1796 120.272 96.3735 120.272C96.7556 120.272 97.0713 120.403 97.3316 120.66C97.5532 120.884 97.664 121.212 97.664 121.65V124.143H96.7169V122.486C96.7169 122.049 96.6947 121.754 96.6559 121.601C96.6116 121.447 96.5396 121.333 96.4399 121.256C96.3402 121.18 96.2128 121.141 96.0633 121.141C95.8694 121.141 95.7033 121.207 95.5593 121.333C95.4208 121.458 95.3211 121.633 95.2713 121.852C95.2436 121.967 95.2269 122.224 95.2269 122.629V124.143H94.2743V118.91L94.2798 118.916Z" fill="#D9D9D9"/>
<path d="M98.8824 120.376H99.8517V122.197C99.8517 122.552 99.8738 122.798 99.9237 122.935C99.9735 123.072 100.051 123.181 100.162 123.257C100.273 123.334 100.406 123.372 100.566 123.372C100.727 123.372 100.86 123.334 100.971 123.257C101.081 123.181 101.164 123.072 101.22 122.924C101.259 122.815 101.281 122.585 101.281 122.224V120.376H102.239V121.978C102.239 122.634 102.189 123.088 102.078 123.329C101.951 123.624 101.757 123.853 101.508 124.012C101.259 124.171 100.937 124.247 100.55 124.247C100.129 124.247 99.7908 124.154 99.5304 123.968C99.2701 123.782 99.0874 123.525 98.9821 123.192C98.9046 122.962 98.8713 122.547 98.8713 121.94V120.365L98.8824 120.376Z" fill="#D9D9D9"/>
<path d="M103.491 120.376H104.449V120.764C104.665 120.583 104.864 120.458 105.042 120.387C105.219 120.316 105.402 120.283 105.584 120.283C105.961 120.283 106.288 120.414 106.548 120.676C106.77 120.901 106.88 121.229 106.88 121.661V124.154H105.933V122.503C105.933 122.054 105.911 121.754 105.872 121.606C105.834 121.458 105.762 121.344 105.656 121.267C105.557 121.19 105.429 121.152 105.28 121.152C105.086 121.152 104.92 121.218 104.781 121.344C104.643 121.469 104.543 121.65 104.493 121.874C104.466 121.994 104.449 122.246 104.449 122.64V124.154H103.491V120.376Z" fill="#D9D9D9"/>
<path d="M110.929 120.376H111.887V123.613C111.887 124.253 111.754 124.723 111.494 125.024C111.145 125.428 110.619 125.636 109.916 125.636C109.539 125.636 109.223 125.592 108.968 125.499C108.714 125.406 108.498 125.27 108.32 125.089C108.143 124.909 108.016 124.69 107.933 124.433H108.991C109.085 124.537 109.207 124.619 109.351 124.674C109.5 124.728 109.672 124.756 109.877 124.756C110.132 124.756 110.342 124.717 110.497 124.635C110.652 124.559 110.763 124.455 110.829 124.329C110.896 124.203 110.929 123.99 110.929 123.684C110.763 123.848 110.586 123.968 110.397 124.045C110.215 124.116 110.004 124.154 109.766 124.154C109.251 124.154 108.819 123.974 108.464 123.607C108.11 123.241 107.933 122.776 107.933 122.218C107.933 121.617 108.121 121.136 108.498 120.775C108.836 120.447 109.245 120.283 109.716 120.283C109.938 120.283 110.143 120.321 110.342 120.403C110.536 120.485 110.735 120.616 110.929 120.797V120.381V120.376ZM109.932 121.163C109.628 121.163 109.378 121.262 109.184 121.464C108.985 121.666 108.891 121.918 108.891 122.218C108.891 122.519 108.991 122.793 109.19 122.995C109.389 123.197 109.644 123.296 109.949 123.296C110.253 123.296 110.492 123.197 110.685 123C110.879 122.804 110.973 122.547 110.973 122.229C110.973 121.912 110.874 121.661 110.68 121.464C110.486 121.267 110.237 121.169 109.927 121.169L109.932 121.163Z" fill="#D9D9D9"/>
<path d="M70.2474 127.446C71.0284 127.446 71.6875 127.703 72.2136 128.223C72.7398 128.742 73.0057 129.376 73.0057 130.131C73.0057 130.886 72.7398 131.514 72.2136 132.034C71.6875 132.553 71.045 132.816 70.2862 132.816C69.5274 132.816 68.8738 132.559 68.3421 132.039C67.8159 131.52 67.55 130.896 67.55 130.158C67.55 129.666 67.6719 129.212 67.9101 128.791C68.1482 128.37 68.4806 128.042 68.896 127.807C69.3114 127.572 69.76 127.452 70.2419 127.452L70.2474 127.446ZM70.2696 127.944C69.8874 127.944 69.5218 128.042 69.184 128.239C68.8406 128.436 68.5747 128.698 68.3809 129.037C68.187 129.371 68.0928 129.743 68.0928 130.153C68.0928 130.76 68.3033 131.274 68.7298 131.689C69.1563 132.105 69.6714 132.318 70.2696 132.318C70.6683 132.318 71.045 132.22 71.3828 132.028C71.7262 131.837 71.9921 131.574 72.1804 131.241C72.3743 130.907 72.4684 130.536 72.4684 130.131C72.4684 129.726 72.3743 129.36 72.1804 129.032C71.9866 128.704 71.7207 128.441 71.3718 128.244C71.0228 128.048 70.6573 127.949 70.264 127.949L70.2696 127.944Z" fill="#D9D9D9"/>
<path d="M75.8248 127.446V127.922C75.6421 127.845 75.487 127.807 75.3596 127.807C75.2654 127.807 75.1824 127.829 75.1214 127.862C75.0605 127.9 75.0162 127.944 74.9996 127.993C74.983 128.042 74.9774 128.173 74.9774 128.392V128.901H75.775V129.322H74.9774V132.679H74.4845V129.322H73.9805V128.901H74.4845V128.31C74.4845 128.042 74.5122 127.845 74.562 127.73C74.6119 127.616 74.7005 127.523 74.8168 127.451C74.9387 127.38 75.0827 127.348 75.2544 127.348C75.415 127.348 75.6033 127.38 75.8248 127.446Z" fill="#D9D9D9"/>
<path d="M78.3893 127.446V127.922C78.2065 127.845 78.057 127.807 77.9241 127.807C77.8299 127.807 77.7468 127.829 77.6859 127.862C77.625 127.9 77.5807 127.944 77.564 127.993C77.5474 128.042 77.5419 128.173 77.5419 128.392V128.901H78.3395V129.322H77.5419V132.679H77.0489V129.322H76.5449V128.901H77.0489V128.31C77.0489 128.042 77.0766 127.845 77.1265 127.73C77.1763 127.616 77.265 127.523 77.3813 127.451C77.5031 127.38 77.6471 127.348 77.8188 127.348C77.9794 127.348 78.1678 127.38 78.3893 127.446Z" fill="#D9D9D9"/>
<path d="M79.5357 127.348C79.6465 127.348 79.7462 127.386 79.8238 127.462C79.9013 127.539 79.9401 127.637 79.9401 127.747C79.9401 127.856 79.9013 127.949 79.8238 128.026C79.7462 128.102 79.6465 128.146 79.5357 128.146C79.425 128.146 79.3308 128.108 79.2533 128.026C79.1757 127.949 79.137 127.851 79.137 127.747C79.137 127.643 79.1757 127.539 79.2533 127.462C79.3308 127.386 79.425 127.348 79.5357 127.348ZM79.292 128.901H79.785V132.679H79.292V128.901Z" fill="#D9D9D9"/>
<path d="M84.8086 129.688L84.4209 129.929C84.0831 129.486 83.6233 129.267 83.0418 129.267C82.5765 129.267 82.1888 129.415 81.8787 129.71C81.5685 130.005 81.4189 130.366 81.4189 130.787C81.4189 131.06 81.4909 131.323 81.6294 131.564C81.7734 131.804 81.9673 131.996 82.211 132.127C82.4602 132.263 82.7371 132.329 83.0418 132.329C83.6012 132.329 84.0609 132.11 84.4209 131.667L84.8086 131.919C84.6258 132.192 84.3821 132.4 84.072 132.553C83.7618 132.701 83.4129 132.777 83.0196 132.777C82.4159 132.777 81.9119 132.586 81.5131 132.209C81.1143 131.831 80.9149 131.367 80.9149 130.825C80.9149 130.459 81.0091 130.12 81.1919 129.808C81.3802 129.497 81.6349 129.251 81.9617 129.076C82.2885 128.901 82.6541 128.813 83.0529 128.813C83.3076 128.813 83.5513 128.851 83.784 128.928C84.0221 129.004 84.2215 129.103 84.3821 129.229C84.5483 129.349 84.6868 129.508 84.7976 129.699L84.8086 129.688Z" fill="#D9D9D9"/>
<path d="M86.2099 127.348C86.3207 127.348 86.4204 127.386 86.498 127.462C86.5755 127.539 86.6143 127.637 86.6143 127.747C86.6143 127.856 86.5755 127.949 86.498 128.026C86.4204 128.102 86.3207 128.146 86.2099 128.146C86.0992 128.146 86.005 128.108 85.9275 128.026C85.8499 127.949 85.8112 127.851 85.8112 127.747C85.8112 127.643 85.8499 127.539 85.9275 127.462C86.005 127.386 86.0992 127.348 86.2099 127.348ZM85.9662 128.901H86.4592V132.679H85.9662V128.901Z" fill="#D9D9D9"/>
<path d="M91.5824 128.906V132.684H91.095V132.034C90.8901 132.28 90.6575 132.466 90.4027 132.592C90.1479 132.717 89.8654 132.777 89.5608 132.777C89.018 132.777 88.5583 132.581 88.1761 132.198C87.7939 131.81 87.6001 131.339 87.6001 130.782C87.6001 130.224 87.794 129.77 88.1817 129.387C88.5694 128.999 89.0346 128.808 89.5774 128.808C89.8931 128.808 90.1756 128.873 90.4304 129.004C90.6852 129.136 90.9067 129.333 91.1006 129.6V128.906H91.588H91.5824ZM89.6162 129.278C89.3448 129.278 89.09 129.343 88.8574 129.475C88.6248 129.606 88.442 129.792 88.3035 130.032C88.165 130.273 88.0986 130.525 88.0986 130.798C88.0986 131.071 88.165 131.317 88.3035 131.558C88.442 131.799 88.6248 131.99 88.8574 132.127C89.09 132.263 89.3392 132.329 89.6051 132.329C89.871 132.329 90.1313 132.263 90.3694 132.127C90.6132 131.996 90.7959 131.81 90.9233 131.58C91.0562 131.35 91.1172 131.093 91.1172 130.809C91.1172 130.371 90.9732 130.005 90.6796 129.715C90.3861 129.42 90.0316 129.272 89.6051 129.272L89.6162 129.278Z" fill="#D9D9D9"/>
<path d="M92.9062 127.446H93.3992V132.679H92.9062V127.446Z" fill="#D9D9D9"/>
<path d="M97.0713 127.577H99.6634V128.075H97.5864V129.677H99.6634V130.175H97.5864V132.679H97.0713V127.572V127.577Z" fill="#D9D9D9"/>
<path d="M104.576 128.906V132.684H104.089V132.034C103.884 132.28 103.651 132.466 103.396 132.592C103.142 132.717 102.859 132.777 102.555 132.777C102.012 132.777 101.552 132.581 101.17 132.198C100.788 131.81 100.594 131.339 100.594 130.782C100.594 130.224 100.788 129.77 101.175 129.387C101.563 128.999 102.028 128.808 102.571 128.808C102.887 128.808 103.169 128.873 103.424 129.004C103.679 129.136 103.9 129.333 104.094 129.6V128.906H104.582H104.576ZM102.61 129.278C102.339 129.278 102.084 129.343 101.851 129.475C101.619 129.606 101.436 129.792 101.297 130.032C101.159 130.273 101.092 130.525 101.092 130.798C101.092 131.071 101.159 131.317 101.297 131.558C101.436 131.799 101.619 131.99 101.851 132.127C102.084 132.263 102.333 132.329 102.599 132.329C102.865 132.329 103.125 132.263 103.363 132.127C103.607 131.996 103.79 131.81 103.917 131.58C104.05 131.35 104.111 131.093 104.111 130.809C104.111 130.371 103.967 130.005 103.673 129.715C103.38 129.42 103.025 129.272 102.599 129.272L102.61 129.278Z" fill="#D9D9D9"/>
<path d="M105.972 128.906H106.465V129.584C106.664 129.327 106.88 129.13 107.119 129.004C107.357 128.879 107.617 128.813 107.9 128.813C108.182 128.813 108.437 128.884 108.658 129.026C108.88 129.169 109.046 129.365 109.151 129.606C109.256 129.847 109.312 130.229 109.312 130.743V132.685H108.819V130.886C108.819 130.454 108.802 130.158 108.764 130.016C108.708 129.765 108.597 129.579 108.437 129.453C108.276 129.327 108.066 129.261 107.805 129.261C107.506 129.261 107.24 129.36 107.008 129.551C106.77 129.748 106.615 129.983 106.543 130.273C106.498 130.459 106.471 130.803 106.471 131.301V132.685H105.978V128.906H105.972Z" fill="#D9D9D9"/>
<path d="M112.574 129.316L112.258 129.639C111.993 129.387 111.738 129.261 111.489 129.261C111.328 129.261 111.19 129.311 111.079 129.42C110.962 129.524 110.907 129.644 110.907 129.786C110.907 129.907 110.951 130.027 111.045 130.136C111.14 130.251 111.339 130.382 111.638 130.536C112.004 130.721 112.253 130.902 112.386 131.077C112.513 131.252 112.58 131.449 112.58 131.673C112.58 131.985 112.469 132.247 112.247 132.46C112.026 132.674 111.749 132.783 111.422 132.783C111.201 132.783 110.99 132.734 110.791 132.641C110.591 132.548 110.425 132.417 110.292 132.247L110.602 131.903C110.852 132.181 111.118 132.324 111.4 132.324C111.599 132.324 111.766 132.263 111.904 132.138C112.042 132.012 112.114 131.864 112.114 131.695C112.114 131.558 112.07 131.432 111.976 131.323C111.882 131.219 111.677 131.082 111.356 130.918C111.012 130.743 110.774 130.568 110.652 130.399C110.53 130.229 110.464 130.032 110.464 129.814C110.464 129.524 110.564 129.289 110.763 129.097C110.962 128.906 111.212 128.813 111.516 128.813C111.871 128.813 112.225 128.983 112.58 129.322L112.574 129.316Z" fill="#D9D9D9"/>
<path d="M120.915 128.523L120.506 128.835C120.278 128.545 120.013 128.326 119.697 128.179C119.381 128.031 119.038 127.955 118.661 127.955C118.251 127.955 117.869 128.053 117.515 128.25C117.166 128.447 116.889 128.709 116.695 129.037C116.501 129.365 116.407 129.737 116.407 130.153C116.407 130.776 116.623 131.296 117.055 131.711C117.487 132.127 118.035 132.335 118.694 132.335C119.42 132.335 120.024 132.056 120.511 131.492L120.921 131.799C120.661 132.121 120.339 132.373 119.957 132.548C119.57 132.723 119.143 132.816 118.667 132.816C117.764 132.816 117.049 132.52 116.523 131.924C116.086 131.421 115.864 130.814 115.864 130.104C115.864 129.354 116.13 128.726 116.662 128.217C117.193 127.709 117.858 127.452 118.656 127.452C119.138 127.452 119.575 127.544 119.963 127.736C120.35 127.922 120.672 128.19 120.921 128.529L120.915 128.523Z" fill="#D9D9D9"/>
<path d="M122.084 127.446H122.577V132.679H122.084V127.446Z" fill="#D9D9D9"/>
<path d="M123.823 128.906H124.316V130.667C124.316 131.099 124.338 131.394 124.388 131.553C124.46 131.782 124.593 131.968 124.793 132.099C124.992 132.236 125.23 132.302 125.501 132.302C125.773 132.302 126.011 132.236 126.199 132.105C126.388 131.974 126.521 131.804 126.593 131.591C126.642 131.443 126.665 131.137 126.665 130.667V128.906H127.169V130.76C127.169 131.279 127.108 131.673 126.986 131.935C126.864 132.198 126.676 132.406 126.432 132.553C126.183 132.701 125.873 132.777 125.501 132.777C125.13 132.777 124.82 132.701 124.571 132.553C124.322 132.406 124.133 132.198 124.012 131.93C123.89 131.662 123.829 131.263 123.829 130.727V128.906H123.823Z" fill="#D9D9D9"/>
<path d="M128.587 132.679V127.446H129.079V129.551C129.284 129.3 129.517 129.114 129.772 128.994C130.027 128.868 130.309 128.808 130.614 128.808C131.157 128.808 131.616 128.999 131.998 129.387C132.381 129.775 132.574 130.246 132.574 130.798C132.574 131.35 132.381 131.81 131.993 132.198C131.605 132.586 131.14 132.777 130.597 132.777C130.287 132.777 130.004 132.712 129.75 132.581C129.495 132.449 129.273 132.253 129.079 131.99V132.685H128.587V132.679ZM130.553 132.307C130.824 132.307 131.079 132.242 131.312 132.105C131.544 131.974 131.727 131.788 131.865 131.542C132.004 131.301 132.07 131.044 132.07 130.776C132.07 130.508 132.004 130.251 131.865 130.011C131.727 129.77 131.544 129.579 131.312 129.442C131.079 129.305 130.83 129.24 130.564 129.24C130.298 129.24 130.038 129.305 129.8 129.442C129.556 129.579 129.373 129.759 129.24 129.989C129.113 130.218 129.046 130.475 129.046 130.76C129.046 131.197 129.19 131.564 129.484 131.859C129.777 132.154 130.132 132.302 130.558 132.302L130.553 132.307Z" fill="#D9D9D9"/>
</svg>
